// Untitled
// David William Hearn
// Created with StaffPad Editor

<global>
ampeg_decay=0
ampeg_sustain=100
ampeg_attack=0
ampeg_release=1.50


<group>
group_label=RR1
seq_length=4
seq_position=1


<region>
sample=Bassflute_overblown_staccato_PP_A#4_RR1.opus
hikey=a#4
hivel=127
lokey=a4
lovel=0
pitch_keycenter=a#4
tune=0
volume=0

<region>
sample=Bassflute_overblown_staccato_PP_A#5_RR1.opus
hikey=a#5
hivel=127
lokey=a5
lovel=0
pitch_keycenter=a#5
tune=0
volume=0

<region>
sample=Bassflute_overblown_staccato_PP_A#6_RR1.opus
hikey=a#6
hivel=127
lokey=a6
lovel=0
pitch_keycenter=a#6
tune=0
volume=0

<region>
sample=Bassflute_overblown_staccato_PP_C4_RR1.opus
hivel=127
key=c4
lovel=0
tune=0
volume=0

<region>
sample=Bassflute_overblown_staccato_PP_C5_RR1.opus
hikey=c5
hivel=127
lokey=b4
lovel=0
pitch_keycenter=c5
tune=0
volume=0

<region>
sample=Bassflute_overblown_staccato_PP_C6_RR1.opus
hikey=c6
hivel=127
lokey=b5
lovel=0
pitch_keycenter=c6
tune=0
volume=0

<region>
sample=Bassflute_overblown_staccato_PP_C7_RR1.opus
hikey=c7
hivel=127
lokey=b6
lovel=0
pitch_keycenter=C7
tune=0
volume=0

<region>
sample=Bassflute_overblown_staccato_PP_D4_RR1.opus
hikey=d4
hivel=127
lokey=c#4
lovel=0
pitch_keycenter=d4
tune=0
volume=0

<region>
sample=Bassflute_overblown_staccato_PP_D5_RR1.opus
hikey=d5
hivel=127
lokey=c#5
lovel=0
pitch_keycenter=d5
tune=0
volume=0

<region>
sample=Bassflute_overblown_staccato_PP_D6_RR1.opus
hikey=d6
hivel=127
lokey=c#6
lovel=0
pitch_keycenter=d6
tune=0
volume=0

<region>
sample=Bassflute_overblown_staccato_PP_E4_RR1.opus
hikey=e4
hivel=127
lokey=d#4
lovel=0
pitch_keycenter=e4
tune=0
volume=0

<region>
sample=Bassflute_overblown_staccato_PP_E5_RR1.opus
hikey=e5
hivel=127
lokey=d#5
lovel=0
pitch_keycenter=e5
tune=0
volume=0

<region>
sample=Bassflute_overblown_staccato_PP_E6_RR1.opus
hikey=e6
hivel=127
lokey=d#6
lovel=0
pitch_keycenter=e6
tune=0
volume=0

<region>
sample=Bassflute_overblown_staccato_PP_F#4_RR1.opus
hikey=f#4
hivel=127
lokey=f4
lovel=0
pitch_keycenter=f#4
tune=0
volume=0

<region>
sample=Bassflute_overblown_staccato_PP_F#5_RR1.opus
hikey=f#5
hivel=127
lokey=f5
lovel=0
pitch_keycenter=f#5
tune=0
volume=0

<region>
sample=Bassflute_overblown_staccato_PP_F#6_RR1.opus
hikey=f#6
hivel=127
lokey=f6
lovel=0
pitch_keycenter=f#6
tune=0
volume=0

<region>
sample=Bassflute_overblown_staccato_PP_G#4_RR1.opus
hikey=g#4
hivel=127
lokey=g4
lovel=0
pitch_keycenter=g#4
tune=0
volume=0

<region>
sample=Bassflute_overblown_staccato_PP_G#5_RR1.opus
hikey=g#5
hivel=127
lokey=g5
lovel=0
pitch_keycenter=g#5
tune=0
volume=0

<region>
sample=Bassflute_overblown_staccato_PP_G#6_RR1.opus
hikey=g#6
hivel=127
lokey=g6
lovel=0
pitch_keycenter=g#6
tune=0
volume=0



<group>
group_label=RR2
seq_length=4
seq_position=2


<region>
sample=Bassflute_overblown_staccato_PP_A#4_RR2.opus
hikey=a#4
hivel=127
lokey=a4
lovel=0
pitch_keycenter=a#4
tune=0
volume=0

<region>
sample=Bassflute_overblown_staccato_PP_A#5_RR2.opus
hikey=a#5
hivel=127
lokey=a5
lovel=0
pitch_keycenter=a#5
tune=0
volume=0

<region>
sample=Bassflute_overblown_staccato_PP_A#6_RR2.opus
hikey=a#6
hivel=127
lokey=a6
lovel=0
pitch_keycenter=a#6
tune=0
volume=0

<region>
sample=Bassflute_overblown_staccato_PP_C4_RR2.opus
hivel=127
key=c4
lovel=0
tune=0
volume=0

<region>
sample=Bassflute_overblown_staccato_PP_C5_RR2.opus
hikey=c5
hivel=127
lokey=b4
lovel=0
pitch_keycenter=c5
tune=0
volume=0

<region>
sample=Bassflute_overblown_staccato_PP_C6_RR2.opus
hikey=c6
hivel=127
lokey=b5
lovel=0
pitch_keycenter=c6
tune=0
volume=0

<region>
sample=Bassflute_overblown_staccato_PP_C7_RR2.opus
hikey=c7
hivel=127
lokey=b6
lovel=0
pitch_keycenter=C7
tune=0
volume=0

<region>
sample=Bassflute_overblown_staccato_PP_D4_RR2.opus
hikey=d4
hivel=127
lokey=c#4
lovel=0
pitch_keycenter=d4
tune=0
volume=0

<region>
sample=Bassflute_overblown_staccato_PP_D5_RR2.opus
hikey=d5
hivel=127
lokey=c#5
lovel=0
pitch_keycenter=d5
tune=0
volume=0

<region>
sample=Bassflute_overblown_staccato_PP_D6_RR2.opus
hikey=d6
hivel=127
lokey=c#6
lovel=0
pitch_keycenter=d6
tune=0
volume=0

<region>
sample=Bassflute_overblown_staccato_PP_E4_RR2.opus
hikey=e4
hivel=127
lokey=d#4
lovel=0
pitch_keycenter=e4
tune=0
volume=0

<region>
sample=Bassflute_overblown_staccato_PP_E5_RR2.opus
hikey=e5
hivel=127
lokey=d#5
lovel=0
pitch_keycenter=e5
tune=0
volume=0

<region>
sample=Bassflute_overblown_staccato_PP_E6_RR2.opus
hikey=e6
hivel=127
lokey=d#6
lovel=0
pitch_keycenter=e6
tune=0
volume=0

<region>
sample=Bassflute_overblown_staccato_PP_F#4_RR2.opus
hikey=f#4
hivel=127
lokey=f4
lovel=0
pitch_keycenter=f#4
tune=0
volume=0

<region>
sample=Bassflute_overblown_staccato_PP_F#5_RR2.opus
hikey=f#5
hivel=127
lokey=f5
lovel=0
pitch_keycenter=f#5
tune=0
volume=0

<region>
sample=Bassflute_overblown_staccato_PP_F#6_RR2.opus
hikey=f#6
hivel=127
lokey=f6
lovel=0
pitch_keycenter=f#6
tune=0
volume=0

<region>
sample=Bassflute_overblown_staccato_PP_G#4_RR2.opus
hikey=g#4
hivel=127
lokey=g4
lovel=0
pitch_keycenter=g#4
tune=0
volume=0

<region>
sample=Bassflute_overblown_staccato_PP_G#5_RR2.opus
hikey=g#5
hivel=127
lokey=g5
lovel=0
pitch_keycenter=g#5
tune=0
volume=0

<region>
sample=Bassflute_overblown_staccato_PP_G#6_RR2.opus
hikey=g#6
hivel=127
lokey=g6
lovel=0
pitch_keycenter=g#6
tune=0
volume=0



<group>
group_label=RR3
seq_length=4
seq_position=3


<region>
sample=Bassflute_overblown_staccato_PP_A#4_RR3.opus
hikey=a#4
hivel=127
lokey=a4
lovel=0
pitch_keycenter=a#4
tune=0
volume=0

<region>
sample=Bassflute_overblown_staccato_PP_A#5_RR3.opus
hikey=a#5
hivel=127
lokey=a5
lovel=0
pitch_keycenter=a#5
tune=0
volume=0

<region>
sample=Bassflute_overblown_staccato_PP_A#6_RR3.opus
hikey=a#6
hivel=127
lokey=a6
lovel=0
pitch_keycenter=a#6
tune=0
volume=0

<region>
sample=Bassflute_overblown_staccato_PP_C4_RR3.opus
hivel=127
key=c4
lovel=0
tune=0
volume=0

<region>
sample=Bassflute_overblown_staccato_PP_C5_RR3.opus
hikey=c5
hivel=127
lokey=b4
lovel=0
pitch_keycenter=c5
tune=0
volume=0

<region>
sample=Bassflute_overblown_staccato_PP_C6_RR3.opus
hikey=c6
hivel=127
lokey=b5
lovel=0
pitch_keycenter=c6
tune=0
volume=0

<region>
sample=Bassflute_overblown_staccato_PP_C7_RR3.opus
hikey=c7
hivel=127
lokey=b6
lovel=0
pitch_keycenter=C7
tune=0
volume=0

<region>
sample=Bassflute_overblown_staccato_PP_D4_RR3.opus
hikey=d4
hivel=127
lokey=c#4
lovel=0
pitch_keycenter=d4
tune=0
volume=0

<region>
sample=Bassflute_overblown_staccato_PP_D5_RR3.opus
hikey=d5
hivel=127
lokey=c#5
lovel=0
pitch_keycenter=d5
tune=0
volume=0

<region>
sample=Bassflute_overblown_staccato_PP_D6_RR3.opus
hikey=d6
hivel=127
lokey=c#6
lovel=0
pitch_keycenter=d6
tune=0
volume=0

<region>
sample=Bassflute_overblown_staccato_PP_E4_RR3.opus
hikey=e4
hivel=127
lokey=d#4
lovel=0
pitch_keycenter=e4
tune=0
volume=0

<region>
sample=Bassflute_overblown_staccato_PP_E5_RR3.opus
hikey=e5
hivel=127
lokey=d#5
lovel=0
pitch_keycenter=e5
tune=0
volume=0

<region>
sample=Bassflute_overblown_staccato_PP_E6_RR3.opus
hikey=e6
hivel=127
lokey=d#6
lovel=0
pitch_keycenter=e6
tune=0
volume=0

<region>
sample=Bassflute_overblown_staccato_PP_F#4_RR3.opus
hikey=f#4
hivel=127
lokey=f4
lovel=0
pitch_keycenter=f#4
tune=0
volume=0

<region>
sample=Bassflute_overblown_staccato_PP_F#5_RR3.opus
hikey=f#5
hivel=127
lokey=f5
lovel=0
pitch_keycenter=f#5
tune=0
volume=0

<region>
sample=Bassflute_overblown_staccato_PP_F#6_RR3.opus
hikey=f#6
hivel=127
lokey=f6
lovel=0
pitch_keycenter=f#6
tune=0
volume=0

<region>
sample=Bassflute_overblown_staccato_PP_G#4_RR3.opus
hikey=g#4
hivel=127
lokey=g4
lovel=0
pitch_keycenter=g#4
tune=0
volume=0

<region>
sample=Bassflute_overblown_staccato_PP_G#5_RR3.opus
hikey=g#5
hivel=127
lokey=g5
lovel=0
pitch_keycenter=g#5
tune=0
volume=0

<region>
sample=Bassflute_overblown_staccato_PP_G#6_RR3.opus
hikey=g#6
hivel=127
lokey=g6
lovel=0
pitch_keycenter=g#6
tune=0
volume=0



<group>
group_label=RR4
seq_length=4
seq_position=4


<region>
sample=Bassflute_overblown_staccato_PP_A#4_RR4.opus
hikey=a#4
hivel=127
lokey=a4
lovel=0
pitch_keycenter=a#4
tune=0
volume=0

<region>
sample=Bassflute_overblown_staccato_PP_A#5_RR4.opus
hikey=a#5
hivel=127
lokey=a5
lovel=0
pitch_keycenter=a#5
tune=0
volume=0

<region>
sample=Bassflute_overblown_staccato_PP_A#6_RR4.opus
hikey=a#6
hivel=127
lokey=a6
lovel=0
pitch_keycenter=a#6
tune=0
volume=0

<region>
sample=Bassflute_overblown_staccato_PP_C4_RR4.opus
hivel=127
key=c4
lovel=0
tune=0
volume=0

<region>
sample=Bassflute_overblown_staccato_PP_C5_RR4.opus
hikey=c5
hivel=127
lokey=b4
lovel=0
pitch_keycenter=c5
tune=0
volume=0

<region>
sample=Bassflute_overblown_staccato_PP_C6_RR4.opus
hikey=c6
hivel=127
lokey=b5
lovel=0
pitch_keycenter=c6
tune=0
volume=0

<region>
sample=Bassflute_overblown_staccato_PP_C7_RR4.opus
hikey=c7
hivel=127
lokey=b6
lovel=0
pitch_keycenter=C7
tune=0
volume=0

<region>
sample=Bassflute_overblown_staccato_PP_D4_RR4.opus
hikey=d4
hivel=127
lokey=c#4
lovel=0
pitch_keycenter=d4
tune=0
volume=0

<region>
sample=Bassflute_overblown_staccato_PP_D5_RR4.opus
hikey=d5
hivel=127
lokey=c#5
lovel=0
pitch_keycenter=d5
tune=0
volume=0

<region>
sample=Bassflute_overblown_staccato_PP_D6_RR4.opus
hikey=d6
hivel=127
lokey=c#6
lovel=0
pitch_keycenter=d6
tune=0
volume=0

<region>
sample=Bassflute_overblown_staccato_PP_E4_RR4.opus
hikey=e4
hivel=127
lokey=d#4
lovel=0
pitch_keycenter=e4
tune=0
volume=0

<region>
sample=Bassflute_overblown_staccato_PP_E5_RR4.opus
hikey=e5
hivel=127
lokey=d#5
lovel=0
pitch_keycenter=e5
tune=0
volume=0

<region>
sample=Bassflute_overblown_staccato_PP_E6_RR4.opus
hikey=e6
hivel=127
lokey=d#6
lovel=0
pitch_keycenter=e6
tune=0
volume=0

<region>
sample=Bassflute_overblown_staccato_PP_F#4_RR4.opus
hikey=f#4
hivel=127
lokey=f4
lovel=0
pitch_keycenter=f#4
tune=0
volume=0

<region>
sample=Bassflute_overblown_staccato_PP_F#5_RR4.opus
hikey=f#5
hivel=127
lokey=f5
lovel=0
pitch_keycenter=f#5
tune=0
volume=0

<region>
sample=Bassflute_overblown_staccato_PP_F#6_RR4.opus
hikey=f#6
hivel=127
lokey=f6
lovel=0
pitch_keycenter=f#6
tune=0
volume=0

<region>
sample=Bassflute_overblown_staccato_PP_G#4_RR4.opus
hikey=g#4
hivel=127
lokey=g4
lovel=0
pitch_keycenter=g#4
tune=0
volume=0

<region>
sample=Bassflute_overblown_staccato_PP_G#5_RR4.opus
hikey=g#5
hivel=127
lokey=g5
lovel=0
pitch_keycenter=g#5
tune=0
volume=0

<region>
sample=Bassflute_overblown_staccato_PP_G#6_RR4.opus
hikey=g#6
hivel=127
lokey=g6
lovel=0
pitch_keycenter=g#6
tune=0
volume=0

